HIERARCHY
ROOT Bip001_Pelvis
{
  OFFSET -32.4806 89.7898 -26.4957
  CHANNELS 6 Xposition Yposition Zposition Zrotation Xrotation Yrotation
  JOINT Bip001_Spine
  {
    OFFSET 1.36423e-005 9.82609 -0.0111551
    CHANNELS 6 Xposition Yposition Zposition Zrotation Xrotation Yrotation
    JOINT Bip001_L_Thigh
    {
      OFFSET 10.6209 -9.82611 0.0111728
      CHANNELS 6 Xposition Yposition Zposition Zrotation Xrotation Yrotation
      JOINT Bip001_L_Calf
      {
        OFFSET -0.679921 -42.3289 0.346167
        CHANNELS 6 Xposition Yposition Zposition Zrotation Xrotation Yrotation
        JOINT Bip001_L_Foot
        {
          OFFSET -0.626829 -39.0325 -3.42448
          CHANNELS 6 Xposition Yposition Zposition Zrotation Xrotation Yrotation
          JOINT Bip001_L_Toe0
          {
            OFFSET 0.0510422 -9.82512 12.6447
            CHANNELS 6 Xposition Yposition Zposition Zrotation Xrotation Yrotation
            End Site
            {
              OFFSET 0 0 7.26544
            }
          }
        }
      }
    }
    JOINT Bip001_R_Thigh
    {
      OFFSET -10.6209 -9.82608 0.0111436
      CHANNELS 6 Xposition Yposition Zposition Zrotation Xrotation Yrotation
      JOINT Bip001_R_Calf
      {
        OFFSET 0.679802 -42.3289 0.346
        CHANNELS 6 Xposition Yposition Zposition Zrotation Xrotation Yrotation
        JOINT Bip001_R_Foot
        {
          OFFSET 0.626718 -39.0325 -3.42433
          CHANNELS 6 Xposition Yposition Zposition Zrotation Xrotation Yrotation
          JOINT Bip001_R_Toe0
          {
            OFFSET -0.0511038 -9.82512 12.6447
            CHANNELS 6 Xposition Yposition Zposition Zrotation Xrotation Yrotation
            End Site
            {
              OFFSET 0 0 7.26545
            }
          }
        }
      }
    }
    JOINT Bip001_Spine1
    {
      OFFSET 1.79847e-005 14.0131 1.0446
      CHANNELS 6 Xposition Yposition Zposition Zrotation Xrotation Yrotation
      JOINT Bip001_Spine2
      {
        OFFSET 2.15975e-005 13.9479 -1.62575
        CHANNELS 6 Xposition Yposition Zposition Zrotation Xrotation Yrotation
        JOINT Bip001_Neck
        {
          OFFSET 2.11806e-005 14.8024 -0.47059
          CHANNELS 6 Xposition Yposition Zposition Zrotation Xrotation Yrotation
          JOINT Bip001_L_Clavicle
          {
            OFFSET 5.82727 -0.000557691 0.00804591
            CHANNELS 6 Xposition Yposition Zposition Zrotation Xrotation Yrotation
            JOINT Bip001_L_UpperArm
            {
              OFFSET 11.1065 -0.0577088 0.00186491
              CHANNELS 6 Xposition Yposition Zposition Zrotation Xrotation Yrotation
              JOINT Bip001_L_Forearm
              {
                OFFSET 24.9547 0.0738805 -2.06271
                CHANNELS 6 Xposition Yposition Zposition Zrotation Xrotation Yrotation
                JOINT Bip001_L_Hand
                {
                  OFFSET 31.0071 0.147991 1.57581
                  CHANNELS 6 Xposition Yposition Zposition Zrotation Xrotation Yrotation
                  JOINT Bip001_L_Finger0
                  {
                    OFFSET 5.81383 -2.12477 5.67619
                    CHANNELS 6 Xposition Yposition Zposition Zrotation Xrotation Yrotation
                    End Site
                    {
                      OFFSET 4.0613 -1.38361 0.583161
                    }
                  }
                  JOINT Bip001_L_Finger1
                  {
                    OFFSET 10.6563 -0.67771 -0.190532
                    CHANNELS 6 Xposition Yposition Zposition Zrotation Xrotation Yrotation
                    End Site
                    {
                      OFFSET 5.9618 -0.382229 -0.0756892
                    }
                  }
                }
              }
            }
          }
          JOINT Bip001_R_Clavicle
          {
            OFFSET -5.82727 -0.000541535 0.00802985
            CHANNELS 6 Xposition Yposition Zposition Zrotation Xrotation Yrotation
            JOINT Bip001_R_UpperArm
            {
              OFFSET -11.1066 -0.0576902 0.00183363
              CHANNELS 6 Xposition Yposition Zposition Zrotation Xrotation Yrotation
              JOINT Bip001_R_Forearm
              {
                OFFSET -24.9541 0.0775788 -2.07299
                CHANNELS 6 Xposition Yposition Zposition Zrotation Xrotation Yrotation
                JOINT Bip001_R_Hand
                {
                  OFFSET -31.0072 0.14794 1.57684
                  CHANNELS 6 Xposition Yposition Zposition Zrotation Xrotation Yrotation
                  JOINT Bip001_R_Finger0
                  {
                    OFFSET -5.81385 -2.12475 5.67617
                    CHANNELS 6 Xposition Yposition Zposition Zrotation Xrotation Yrotation
                    End Site
                    {
                      OFFSET -4.0613 -1.38359 0.583149
                    }
                  }
                  JOINT Bip001_R_Finger1
                  {
                    OFFSET -10.6563 -0.677681 -0.190562
                    CHANNELS 6 Xposition Yposition Zposition Zrotation Xrotation Yrotation
                    End Site
                    {
                      OFFSET -5.9618 -0.382212 -0.0757058
                    }
                  }
                }
              }
            }
          }
          JOINT Bip001_Head
          {
            OFFSET 1.05455e-005 10.8408 1.98027
            CHANNELS 6 Xposition Yposition Zposition Zrotation Xrotation Yrotation
            End Site
            {
              OFFSET 2.78438e-005 20.0777 -2.67046e-005
            }
          }
        }
      }
    }
  }
}
MOTION
Frames:	6
Frame Time:	0.0333333
-18.1185 93.1339 202.579 -2.88053 2.38372 -6.04661 1.36423e-005 9.82609 -0.0111551 -0.780345 2.45014 0.334562 10.6209 -9.82611 0.0111728 3.28862 -15.6192 15.4169 -0.679921 -42.3289 0.346167 3.68057 11.607 5.01091 -0.626829 -39.0325 -3.42448 0.115414 1.08837 0.0328827 0.0510422 -9.82512 12.6447 2.32945 1.62711 -3.89079 -10.6209 -9.82608 0.0111436 -1.16464 -8.41547 -15.1717 0.679802 -42.3289 0.346 -4.47064 19.9054 7.32373 0.626718 -39.0325 -3.42433 2.00956 -2.89526 -0.0774168 -0.0511038 -9.82512 12.6447 -3.97781 2.68914 7.13085 1.79847e-005 14.0131 1.0446 -1.57688 4.89545 0.70348 2.15975e-005 13.9479 -1.62575 -1.57688 4.89546 0.703482 2.11806e-005 14.8024 -0.47059 -1.48316 17.8696 8.72091 5.82727 -0.000557691 0.00804591 1.16631 -17.793 -11.0249 11.1065 -0.0577088 0.00186491 -63.4382 4.13013 -41.9883 24.9548 0.0738805 -2.0627 12.7767 21.4594 -41.0792 31.0073 0.147991 1.5758 10.9319 -1.14444 -3.01228 5.81386 -2.12477 5.67615 -3.18055e-015 1.59028e-015 -1.59028e-015 10.6564 -0.677711 -0.190531 -3.18055e-015 -2.38542e-015 -7.95139e-016 -5.82727 -0.000541535 0.00802985 -6.19034 -17.0427 -12.2181 -11.1066 -0.0576902 0.00183363 65.8503 24.387 27.397 -24.9541 0.0775788 -2.07298 6.86742 -1.26003 82.1655 -31.0074 0.14794 1.57682 -5.71893 -0.592269 -1.56361 -5.81389 -2.12475 5.67613 -1.07589e-031 7.7526e-015 7.95139e-016 -10.6564 -0.677681 -0.19056 -3.18055e-015 4.37326e-015 -1.59028e-015 1.05455e-005 10.8408 1.98027 -6.46196 -17.7474 8.98743 
-17.9809 93.1445 202.993 -2.8256 2.49989 -4.53197 1.36423e-005 9.82609 -0.0111551 -0.786761 2.46399 0.479926 10.6209 -9.82611 0.0111728 2.83736 -15.5831 14.7751 -0.679921 -42.3289 0.346167 3.56027 11.318 3.98053 -0.626829 -39.0325 -3.42448 0.291254 1.02297 0.0211841 0.0510422 -9.82512 12.6447 2.25622 1.73765 -3.73348 -10.6209 -9.82608 0.0111436 -1.47464 -8.30841 -16.0911 0.679802 -42.3289 0.346 -4.52392 20.3002 6.913 0.626718 -39.0325 -3.42433 2.19359 -2.74772 -0.0853187 -0.0511038 -9.82512 12.6447 -4.09626 2.48478 7.32128 1.79847e-005 14.0131 1.0446 -1.59698 4.92105 0.995107 2.15975e-005 13.9479 -1.62575 -1.59699 4.92106 0.995111 2.11806e-005 14.8024 -0.47059 -1.41011 17.7832 7.87676 5.82727 -0.000557691 0.00804591 1.36689 -17.707 -9.73695 11.1065 -0.0577088 0.00186491 -62.401 8.13579 -40.4592 24.9547 0.0738805 -2.0627 14.4573 20.1437 -44.6985 31.0073 0.147991 1.5758 11.6204 -1.39331 -2.98601 5.81386 -2.12477 5.67615 -3.18055e-015 -3.37934e-015 -7.95139e-016 10.6564 -0.677711 -0.190531 -3.18055e-015 -2.18663e-015 -0 -5.82727 -0.000541535 0.00802985 -7.11466 -16.8729 -11.7784 -11.1066 -0.0576902 0.00183363 63.1861 23.5886 31.4199 -24.9541 0.0775788 -2.07298 6.54085 -1.48705 83.4206 -31.0075 0.14794 1.57682 -5.2767 -0.52171 -1.74608 -5.81389 -2.12475 5.67613 -0 -3.77691e-015 -0 -10.6564 -0.677681 -0.19056 -1.37935e-033 -1.98785e-016 -3.97569e-016 1.05455e-005 10.8408 1.98027 -6.17904 -17.3358 8.12613 
-17.8828 93.1515 203.351 -2.756 2.65801 -2.81573 1.36423e-005 9.82609 -0.0111551 -0.807284 2.47123 0.630404 10.6209 -9.82611 0.0111728 2.36375 -15.6272 14.0533 -0.679921 -42.3289 0.346167 3.51767 11.016 2.91412 -0.626829 -39.0325 -3.42448 0.456055 1.02467 0.00837197 0.0510422 -9.82512 12.6447 2.31625 1.77887 -3.83032 -10.6209 -9.82608 0.0111436 -1.71475 -8.25952 -16.6817 0.679802 -42.3289 0.346 -4.50097 20.7427 5.93893 0.626718 -39.0325 -3.42433 2.60753 -2.54457 -0.102744 -0.0511038 -9.82512 12.6447 -4.17868 2.15641 7.44749 1.79847e-005 14.0131 1.0446 -1.64529 4.93316 1.29749 2.15975e-005 13.9479 -1.62575 -1.64529 4.93317 1.29749 2.11806e-005 14.8024 -0.47059 -1.31936 17.6292 6.96581 5.82727 -0.000557691 0.00804591 1.66298 -17.5606 -8.36504 11.1065 -0.0577088 0.00186491 -61.9129 11.4286 -39.2833 24.9547 0.0738805 -2.0627 15.6728 19.4569 -47.9456 31.0073 0.147991 1.5758 12.0336 -1.51704 -3.07837 5.81386 -2.12477 5.67615 -7.1726e-032 5.1684e-015 7.95139e-016 10.6564 -0.677711 -0.190531 3.18055e-015 7.95139e-016 7.95139e-016 -5.82727 -0.000541535 0.00802985 -7.69749 -16.7114 -11.1273 -11.1066 -0.0576902 0.00183363 60.2824 22.3684 35.4524 -24.9541 0.0775788 -2.07298 6.18902 -1.61052 83.6575 -31.0075 0.14794 1.57682 -4.99191 -0.508865 -1.98038 -5.8139 -2.12475 5.67613 9.54166e-015 -7.95139e-015 7.95139e-016 -10.6564 -0.677681 -0.19056 9.54166e-015 -8.34896e-015 -0 1.05455e-005 10.8408 1.98027 -5.67412 -16.8375 7.18782 
-17.8452 93.162 203.672 -2.76542 2.78496 -0.97712 1.36423e-005 9.82609 -0.0111551 -0.810383 2.49492 0.786141 10.6209 -9.82611 0.0111728 1.98437 -15.7171 13.0937 -0.679921 -42.3289 0.346167 3.42751 10.7862 1.96198 -0.626829 -39.0325 -3.42448 0.602386 1.08401 -0.00361303 0.0510422 -9.82512 12.6447 2.394 1.79106 -3.96733 -10.6209 -9.82608 0.0111436 -1.79042 -8.20079 -16.9446 0.679802 -42.3289 0.346 -4.43182 21.199 4.4819 0.626718 -39.0325 -3.42433 3.03227 -2.36701 -0.12183 -0.0511038 -9.82512 12.6447 -4.20309 2.02832 7.47403 1.79847e-005 14.0131 1.0446 -1.65644 4.97821 1.60982 2.15975e-005 13.9479 -1.62575 -1.65644 4.97821 1.60982 2.11806e-005 14.8024 -0.47059 -1.22852 17.446 5.98529 5.82727 -0.000557691 0.00804591 1.97957 -17.3764 -6.95022 11.1065 -0.0577088 0.00186491 -61.3755 14.7202 -38.3398 24.9547 0.0738805 -2.0627 17.0514 18.9269 -50.9247 31.0073 0.147991 1.5758 12.8975 -1.82712 -3.01864 5.81386 -2.12477 5.67615 1.18624e-031 8.54774e-015 -7.95139e-016 10.6564 -0.677712 -0.190531 -3.18055e-015 3.57813e-015 -1.59028e-015 -5.82727 -0.000541535 0.00802985 -8.06234 -16.5745 -10.2576 -11.1066 -0.0576902 0.00183363 57.2613 20.7818 39.1039 -24.9542 0.0775787 -2.07298 7.3612 -1.43755 83.0856 -31.0075 0.14794 1.57682 -5.02188 -0.49133 -1.88617 -5.8139 -2.12475 5.67613 3.18055e-015 5.56597e-015 -4.77083e-015 -10.6564 -0.67768 -0.19056 6.36111e-015 4.77083e-015 -1.59028e-015 1.05455e-005 10.8408 1.98027 -5.10562 -16.3029 6.16993 
-17.8309 93.1604 203.964 -2.7966 2.84035 0.871335 1.36423e-005 9.82609 -0.0111551 -0.803599 2.53582 0.949232 10.6209 -9.82611 0.0111728 1.6123 -15.8254 12.018 -0.679921 -42.3289 0.346167 3.38047 10.6662 1.07702 -0.626829 -39.0325 -3.42448 0.764641 1.11502 -0.0151866 0.0510422 -9.82512 12.6447 2.43375 1.80491 -4.03542 -10.6209 -9.82608 0.0111436 -1.93593 -8.12897 -17.972 0.679802 -42.3289 0.346 -4.44718 21.716 3.64885 0.626718 -39.0325 -3.42433 3.16447 -2.28118 -0.129159 -0.0511038 -9.82512 12.6447 -4.3335 1.97175 7.70443 1.79847e-005 14.0131 1.0446 -1.65159 5.05769 1.93684 2.15975e-005 13.9479 -1.62575 -1.6516 5.0577 1.93685 2.11806e-005 14.8024 -0.47059 -1.03619 17.274 4.95254 5.82727 -0.000557691 0.00804591 2.11943 -17.1826 -5.47011 11.1065 -0.0577088 0.00186491 -60.9826 17.7353 -37.5829 24.9547 0.0738805 -2.0627 18.508 18.8421 -53.6991 31.0073 0.147991 1.5758 13.7764 -2.12528 -3.02517 5.81386 -2.12477 5.67615 -3.18055e-015 4.77083e-015 1.59028e-015 10.6564 -0.677712 -0.19053 -3.18055e-015 7.7526e-015 -0 -5.82727 -0.000541535 0.00802985 -8.81602 -16.4273 -9.56597 -11.1066 -0.0576902 0.00183363 54.7564 19.185 42.5661 -24.9542 0.0775787 -2.07298 8.36832 -0.963275 81.4209 -31.0075 0.14794 1.57682 -4.69384 -0.534522 -2.3311 -5.8139 -2.12475 5.67613 -9.54166e-015 5.56597e-015 -1.59028e-015 -10.6564 -0.67768 -0.19056 -6.36111e-015 3.97569e-015 -1.59028e-015 1.05455e-005 10.8408 1.98027 -4.70913 -15.7727 5.15336 
-17.8729 93.1579 204.234 -2.78474 2.84446 2.68837 1.36423e-005 9.82609 -0.0111551 -0.804343 2.59557 1.13051 10.6209 -9.82611 0.0111728 1.25646 -15.8822 10.8835 -0.679921 -42.3289 0.346167 3.27674 10.522 0.206811 -0.626829 -39.0325 -3.42448 0.972357 1.11462 -0.0291346 0.0510422 -9.82512 12.6447 2.395 1.95591 -3.93003 -10.6209 -9.82608 0.0111436 -1.92697 -8.07003 -19.2863 0.679802 -42.3289 0.346 -4.8053 22.1943 3.44222 0.626718 -39.0325 -3.42433 3.38032 -2.15727 -0.139942 -0.0511038 -9.82512 12.6447 -4.11673 1.81821 7.31436 1.79847e-005 14.0131 1.0446 -1.6624 5.17447 2.30094 2.15975e-005 13.9479 -1.62575 -1.6624 5.17447 2.30094 2.11806e-005 14.8024 -0.47059 -1.03909 16.9674 3.96653 5.82727 -0.000557691 0.00804591 2.27076 -16.8559 -3.98876 11.1065 -0.0577088 0.00186491 -60.5828 20.6862 -36.9518 24.9547 0.0738805 -2.0627 19.9509 18.5363 -56.123 31.0073 0.147991 1.5758 14.1963 -2.24613 -3.15841 5.81386 -2.12477 5.67615 -2.48282e-032 3.57812e-015 3.97569e-016 10.6564 -0.677712 -0.19053 3.18055e-015 6.36111e-015 7.95139e-016 -5.82727 -0.000541535 0.00802985 -9.34718 -16.1917 -8.71758 -11.1066 -0.0576902 0.00183363 52.5381 17.6259 45.6391 -24.9542 0.0775787 -2.07298 9.28423 -0.409604 78.8222 -31.0075 0.14794 1.57682 -4.20156 -0.622111 -3.02792 -5.8139 -2.12475 5.67613 -1.76556e-031 -6.36111e-015 -1.59028e-015 -10.6564 -0.67768 -0.19056 1.32417e-031 -4.77083e-015 1.59028e-015 1.05455e-005 10.8408 1.98027 -4.10541 -15.1216 4.08165 
